<svg id="f94210ac-aad2-4003-aa23-ce9056378ea6" data-name="Layer 1" xmlns="http://www.w3.org/2000/svg" viewBox="0 0 72 72"><path d="M36.42,4.31l-4.8,5H21.86c-2.71,0-4.5,1.79-4.5,4V59.68a4,4,0,0,0,4,4H55.82a4,4,0,0,0,4-4V13.26a3.93,3.93,0,0,0-3.5-4h-10l-4.83-5Z" fill="#eff8f7"/><path d="M52.32,67.7H17.86a4.53,4.53,0,0,1-4.52-4.52V16.76c0-2.58,2.16-4.52,5-4.52h8.93a1.45,1.45,0,0,0,1-.44L32,8.06a2.52,2.52,0,0,1,1.81-.77l3.45,0h0a2.36,2.36,0,0,1,1.66.7l3.73,3.84a1.41,1.41,0,0,0,1,.43h9.2a4.45,4.45,0,0,1,4,4.52V63.18A4.53,4.53,0,0,1,52.32,67.7Zm-34-54.42c-2.3,0-4,1.46-4,3.48V63.18a3.48,3.48,0,0,0,3.48,3.47H52.32a3.48,3.48,0,0,0,3.48-3.47V16.76a3.43,3.43,0,0,0-3-3.48h-9.2a2.47,2.47,0,0,1-1.75-.74L38.14,8.7a1.26,1.26,0,0,0-.91-.39h0l-3.45,0a1.47,1.47,0,0,0-1.07.45h0l-3.64,3.75a2.48,2.48,0,0,1-1.78.76H18.35Zm14-4.86h0Zm7.47,50.9h-20a.52.52,0,1,1,0-1h20a.52.52,0,0,1,0,1Zm8.66-4.5H19.78a.52.52,0,1,1,0-1H48.46a.52.52,0,0,1,0,1Zm1.62-5H19.78a.52.52,0,1,1,0-1h30.3a.52.52,0,0,1,0,1Zm-3.61-6.51H42.85a.47.47,0,0,1-.34-.13,1.3,1.3,0,0,1-.31-.39L42,42.23a.51.51,0,0,1,0-.17V40.92H29.25v1.14a.45.45,0,0,1,0,.16l-.17.49s0,.08,0,.11a1.4,1.4,0,0,1-.35.38.5.5,0,0,1-.31.1H24.48c-1.2,0-1.45-.71-1.53-1a.49.49,0,0,1,0-.12V33.31a.52.52,0,0,1,.16-.37,1.41,1.41,0,0,0,.42-.92v-.1h-.8a.51.51,0,0,1-.46-.27,3.13,3.13,0,0,1-.41-1.49A2.92,2.92,0,0,1,22.11,29a.31.31,0,0,1,.05-.1l.63-.86a.38.38,0,0,1,.11-.11,2.37,2.37,0,0,1,1.51-.36l.37,0a23.27,23.27,0,0,1,1.87-4.47,3.65,3.65,0,0,1,.55-.81l.08-.07.15-.1.08-.05a14.19,14.19,0,0,1,3.59-.9,40.76,40.76,0,0,1,9.2,0,12.45,12.45,0,0,1,3.31.89h0l0,0,.09.06.14.1a3.59,3.59,0,0,1,.6.88,25.24,25.24,0,0,1,1.69,4.45l.31,0a2,2,0,0,1,1.44.37.52.52,0,0,1,.1.11l.58.86a.41.41,0,0,1,0,.09,3.2,3.2,0,0,1,.24,1.19,3,3,0,0,1-.38,1.47.53.53,0,0,1-.46.28h-.7v.15a1.6,1.6,0,0,0,.39.89.52.52,0,0,1,.14.35v8.84s0,.07,0,.1A1.3,1.3,0,0,1,46.47,43.31Zm-3.35-1h3.31c.32,0,.38-.07.41-.16V33.52a2.76,2.76,0,0,1-.53-1.38l0-.73a.51.51,0,0,1,.52-.51h.87a2,2,0,0,0,.13-.71,2.15,2.15,0,0,0-.14-.74l-.5-.74a1.56,1.56,0,0,0-.7-.1,2.9,2.9,0,0,0-.6.07.51.51,0,0,1-.6-.36,26.46,26.46,0,0,0-1.75-4.69,2.62,2.62,0,0,0-.37-.59l0,0a11.18,11.18,0,0,0-3-.8c-1.52-.13-3-.2-4.33-.2l-1.37,0c-1,0-2.09.08-3.23.17A13.14,13.14,0,0,0,28,23l-.06,0a4.63,4.63,0,0,0-.37.57,24.71,24.71,0,0,0-1.9,4.68.52.52,0,0,1-.58.35,6.37,6.37,0,0,0-.68-.06,1.56,1.56,0,0,0-.81.12l-.53.73a1.85,1.85,0,0,0-.15.71,1.91,1.91,0,0,0,.15.73h1a.53.53,0,0,1,.52.51l0,.66A2.52,2.52,0,0,1,24,33.52v8.56c0,.08.11.2.49.17h3.64l.1-.29V40.39a.51.51,0,0,1,.52-.52H42.5a.52.52,0,0,1,.52.52V42Zm1-5.44H40.65l-.14,0-.24-.07a.94.94,0,0,1-.46-.29,1,1,0,0,1-.21-.26c-.42-.94.61-1.72.95-2a9.65,9.65,0,0,1,1.86-1,2.61,2.61,0,0,1,2.1-.16,1.42,1.42,0,0,1,.74.92l.13,1.18a1.79,1.79,0,0,1-.55,1.32,1.48,1.48,0,0,1-.59.33Zm-3.47-1h0Zm3.16-1.86a2.92,2.92,0,0,0-1,.25,8.58,8.58,0,0,0-1.63.87c-.6.45-.62.68-.62.68s.05,0,.08.06a.11.11,0,0,0-.06-.06l.17,0H44a.41.41,0,0,0,.13-.08.75.75,0,0,0,.21-.54l-.11-1a.36.36,0,0,0-.17-.19A.69.69,0,0,0,43.78,33.94ZM30.59,36.83H27.16l-.15,0a1.43,1.43,0,0,1-.6-.34,1.75,1.75,0,0,1-.55-1.22L26,34.07a1.44,1.44,0,0,1,.75-1,2.59,2.59,0,0,1,2.11.16,9.84,9.84,0,0,1,1.83,1q1.39,1,1,1.95l0,0a1,1,0,0,1-.2.26,1,1,0,0,1-.46.29l-.24.07Zm.09-1.09.51.2-.48-.21h0s0-.22-.64-.69a8.42,8.42,0,0,0-1.62-.86c-.82-.33-1.15-.25-1.26-.2s-.13.07-.19.28l-.1,1a.75.75,0,0,0,.2.44.46.46,0,0,0,.15.09Zm4.5-5a31.08,31.08,0,0,1-8.34-1.08.53.53,0,0,1-.37-.62c.12-.52.28-1.1.49-1.74a8.53,8.53,0,0,1,1.45-2.87.51.51,0,0,1,.21-.15,16.76,16.76,0,0,1,3.74-.78,26.48,26.48,0,0,1,9.48.76.5.5,0,0,1,.31.24L43,25.84l0,0a9,9,0,0,1,1,3.33.51.51,0,0,1-.38.54,29.46,29.46,0,0,1-5.22.83C37.31,30.66,36.23,30.71,35.18,30.71ZM27.6,28.76a32.26,32.26,0,0,0,10.71.78,32.58,32.58,0,0,0,4.6-.69,8.41,8.41,0,0,0-.85-2.5l-.69-1.16a24.78,24.78,0,0,0-8.89-.68,16.31,16.31,0,0,0-3.37.67A8.14,8.14,0,0,0,28,27.6C27.81,28,27.7,28.4,27.6,28.76Zm7.86-14.48a2.39,2.39,0,1,1,2.38-2.39A2.39,2.39,0,0,1,35.46,14.28Zm0-3.74a1.35,1.35,0,1,0,1.34,1.35A1.35,1.35,0,0,0,35.46,10.54Z" fill="#0d405c"/></svg>